<svg xmlns="http://www.w3.org/2000/svg" viewBox="0 0 32 32">
  <defs>
    <clipPath id="leftHalfSmall">
      <polygon points="0,0 0,32 32,32"/>
    </clipPath>
    <clipPath id="rightHalfSmall">
      <polygon points="0,0 32,0 32,32"/>
    </clipPath>

    <linearGradient id="lockGradientSmall" x1="0%" y1="0%" x2="0%" y2="100%">
      <stop offset="0%" stop-color="#3b82f6"/>
      <stop offset="100%" stop-color="#1d4ed8"/>
    </linearGradient>

    <radialGradient id="keyholeGlowSmall" cx="50%" cy="30%" r="60%">
      <stop offset="0%" stop-color="#fbbf24"/>
      <stop offset="100%" stop-color="#d97706"/>
    </radialGradient>
  </defs>

  <!-- Background -->
  <rect width="32" height="32" rx="4" fill="#0f172a"/>

  <!-- ==================== LEFT/BOTTOM HALF: SIMPLIFIED LOCK ==================== -->
  <g clip-path="url(#leftHalfSmall)">
    <rect width="32" height="32" fill="#1e3a5f"/>

    <g transform="translate(-3, 4)">
      <!-- Lock shackle -->
      <path d="M11 13 L11 9.5 Q11 5 16 5 Q21 5 21 9.5 L21 13"
            fill="none" stroke="#3b82f6" stroke-width="3" stroke-linecap="round"/>
      <path d="M12.5 12 L12.5 10 Q12.5 7 16 7 Q19.5 7 19.5 10 L19.5 12"
            fill="none" stroke="#60a5fa" stroke-width="1" stroke-linecap="round" opacity="0.7"/>

      <!-- Lock body -->
      <rect x="8" y="12" width="16" height="13" rx="2" fill="url(#lockGradientSmall)"/>
      <rect x="8" y="12" width="16" height="2" rx="1" fill="#60a5fa" opacity="0.5"/>
      <rect x="10" y="14.5" width="12" height="9" rx="1" fill="#0f172a"/>

      <!-- Keyhole with amber glow - original design -->
      <circle cx="16" cy="17.5" r="3" fill="url(#keyholeGlowSmall)"/>
      <circle cx="16" cy="16.5" r="1.2" fill="#0f172a"/>
      <rect x="15" y="17" width="2" height="4" rx="0.5" fill="#0f172a"/>
    </g>
  </g>

  <!-- ==================== RIGHT/TOP HALF: SIMPLIFIED FILM + PLAY ==================== -->
  <g clip-path="url(#rightHalfSmall)">
    <rect width="32" height="32" fill="#1e293b"/>

    <g transform="translate(2, -3)">
      <!-- Film strip background -->
      <rect x="4" y="8" width="24" height="16" rx="1" fill="#334155"/>

      <!-- Sprocket holes -->
      <g fill="#1e293b">
        <circle cx="8" cy="10" r="1.5"/>
        <circle cx="14" cy="10" r="1.5"/>
        <circle cx="20" cy="10" r="1.5"/>
        <circle cx="26" cy="10" r="1.5"/>
        <circle cx="8" cy="22" r="1.5"/>
        <circle cx="14" cy="22" r="1.5"/>
        <circle cx="20" cy="22" r="1.5"/>
        <circle cx="26" cy="22" r="1.5"/>
      </g>

      <!-- Film frame area -->
      <rect x="4" y="12" width="24" height="8" fill="#0f172a"/>

      <!-- Red accent ring around play -->
      <circle cx="16" cy="16" r="5" fill="none" stroke="#e94560" stroke-width="1" opacity="0.8"/>

      <!-- Play triangle -->
      <path d="M13 13 L13 19 L20 16 Z" fill="#f8fafc"/>
    </g>
  </g>

  <!-- ==================== DIAGONAL FILM STRIP ==================== -->
  <path d="M-2,0 L0,-2 L34,32 L32,34 Z" fill="#374151"/>
  <path d="M-2,0 L0,-2 L33,31 L32,32 Z" fill="#4b5563" opacity="0.5"/>

  <!-- Perforation holes -->
  <g fill="#0f172a">
    <circle cx="3" cy="3" r="1.5"/>
    <circle cx="9" cy="9" r="1.5"/>
    <circle cx="16" cy="16" r="1.5"/>
    <circle cx="23" cy="23" r="1.5"/>
    <circle cx="29" cy="29" r="1.5"/>
  </g>
</svg>