<svg xmlns="http://www.w3.org/2000/svg" viewBox="0 0 512 512">
  <defs>
    <clipPath id="leftHalfHC">
      <polygon points="0,0 0,512 512,512"/>
    </clipPath>
    <clipPath id="rightHalfHC">
      <polygon points="0,0 512,0 512,512"/>
    </clipPath>

    <linearGradient id="lockGradientHC" x1="0%" y1="0%" x2="0%" y2="100%">
      <stop offset="0%" stop-color="#60a5fa"/>
      <stop offset="100%" stop-color="#2563eb"/>
    </linearGradient>
  </defs>

  <!-- Background -->
  <rect width="512" height="512" rx="64" fill="#0a0f1a"/>

  <!-- ==================== LEFT/BOTTOM HALF: LOCK (HIGH CONTRAST) ==================== -->
  <g clip-path="url(#leftHalfHC)">
    <rect width="512" height="512" fill="#1e3a5f"/>

    <g transform="translate(-50, 60)">
      <!-- Lock shackle -->
      <path d="M176 220 L176 155 Q176 75 256 75 Q336 75 336 155 L336 220"
            fill="none" stroke="#0a0f1a" stroke-width="52" stroke-linecap="round"/>
      <path d="M176 220 L176 155 Q176 75 256 75 Q336 75 336 155 L336 220"
            fill="none" stroke="url(#lockGradientHC)" stroke-width="44" stroke-linecap="round"/>
      <path d="M186 214 L186 160 Q186 90 256 90 Q326 90 326 160 L326 214"
            fill="none" stroke="#93c5fd" stroke-width="8" stroke-linecap="round" opacity="0.8"/>
      <path d="M200 220 L200 163 Q200 105 256 105 Q312 105 312 163 L312 220"
            fill="none" stroke="#0a0f1a" stroke-width="20" stroke-linecap="round"/>

      <!-- Lock body -->
      <rect x="130" y="216" width="252" height="210" rx="28" fill="#0a0f1a"/>
      <rect x="136" y="222" width="240" height="198" rx="24" fill="url(#lockGradientHC)"/>
      <rect x="140" y="222" width="232" height="14" rx="7" fill="#93c5fd" opacity="0.6"/>
      <rect x="154" y="248" width="204" height="152" rx="18" fill="#0a0f1a"/>
      <rect x="158" y="252" width="196" height="144" rx="16" fill="#1e293b"/>

      <!-- Keyhole - high contrast with bright amber -->
      <circle cx="256" cy="320" r="54" fill="#0a0f1a"/>
      <circle cx="256" cy="320" r="48" fill="#fbbf24"/>
      <circle cx="256" cy="320" r="44" fill="#fcd34d"/>

      <!-- Keyhole shape - original design -->
      <circle cx="256" cy="305" r="18" fill="#0a0f1a"/>
      <rect x="246" y="312" width="20" height="45" rx="5" fill="#0a0f1a"/>
    </g>
  </g>

  <!-- ==================== RIGHT/TOP HALF: FILM STRIP (HIGH CONTRAST) ==================== -->
  <g clip-path="url(#rightHalfHC)">
    <rect width="512" height="512" fill="#1e293b"/>

    <g transform="translate(40, -60)">
      <!-- Film strip -->
      <rect x="74" y="94" width="372" height="272" rx="12" fill="#0a0f1a"/>
      <rect x="80" y="100" width="360" height="260" rx="8" fill="#475569"/>

      <!-- Sprocket holes with high contrast borders -->
      <g>
        <g fill="#0a0f1a">
          <circle cx="115" cy="120" r="13"/>
          <circle cx="165" cy="120" r="13"/>
          <circle cx="215" cy="120" r="13"/>
          <circle cx="265" cy="120" r="13"/>
          <circle cx="315" cy="120" r="13"/>
          <circle cx="365" cy="120" r="13"/>
          <circle cx="415" cy="120" r="13"/>
        </g>
        <g fill="#1e293b">
          <circle cx="115" cy="120" r="10"/>
          <circle cx="165" cy="120" r="10"/>
          <circle cx="215" cy="120" r="10"/>
          <circle cx="265" cy="120" r="10"/>
          <circle cx="315" cy="120" r="10"/>
          <circle cx="365" cy="120" r="10"/>
          <circle cx="415" cy="120" r="10"/>
        </g>

        <g fill="#0a0f1a">
          <circle cx="115" cy="340" r="13"/>
          <circle cx="165" cy="340" r="13"/>
          <circle cx="215" cy="340" r="13"/>
          <circle cx="265" cy="340" r="13"/>
          <circle cx="315" cy="340" r="13"/>
          <circle cx="365" cy="340" r="13"/>
          <circle cx="415" cy="340" r="13"/>
        </g>
        <g fill="#1e293b">
          <circle cx="115" cy="340" r="10"/>
          <circle cx="165" cy="340" r="10"/>
          <circle cx="215" cy="340" r="10"/>
          <circle cx="265" cy="340" r="10"/>
          <circle cx="315" cy="340" r="10"/>
          <circle cx="365" cy="340" r="10"/>
          <circle cx="415" cy="340" r="10"/>
        </g>
      </g>

      <!-- Film frame area -->
      <rect x="80" y="138" width="360" height="184" fill="#0f172a"/>

      <!-- Film frame dividers -->
      <rect x="173" y="138" width="6" height="184" fill="#475569"/>
      <rect x="278" y="138" width="6" height="184" fill="#475569"/>
      <rect x="383" y="138" width="6" height="184" fill="#475569"/>

      <!-- Play button - high contrast with red accent -->
      <circle cx="280" cy="230" r="58" fill="#e94560" opacity="0.3"/>
      <circle cx="280" cy="230" r="54" fill="none" stroke="#e94560" stroke-width="4"/>
      <circle cx="280" cy="230" r="48" fill="#0a0f1a"/>
      <circle cx="280" cy="230" r="44" fill="#f8fafc"/>
      <circle cx="280" cy="230" r="40" fill="#ffffff"/>

      <!-- Play triangle - dark on light for contrast -->
      <path d="M262 198 L262 262 L312 230 Z" fill="#0a0f1a"/>
    </g>
  </g>

  <!-- ==================== DIAGONAL FILM PERFORATION STRIP (HIGH CONTRAST) ==================== -->
  <!-- Extended film strip -->
  <path d="M-24,-4 L-4,-24 L536,516 L516,536 Z" fill="#0a0f1a"/>
  <path d="M-20,0 L0,-20 L532,512 L512,532 Z" fill="#4b5563"/>
  <path d="M-20,0 L0,-20 L528,508 L524,512 L-4,4 Z" fill="#6b7280" opacity="0.7"/>

  <!-- Perforation holes with borders -->
  <g>
    <g fill="#0a0f1a">
      <circle cx="16" cy="16" r="11"/>
      <circle cx="52" cy="52" r="11"/>
      <circle cx="88" cy="88" r="11"/>
      <circle cx="124" cy="124" r="11"/>
      <circle cx="160" cy="160" r="11"/>
      <circle cx="196" cy="196" r="11"/>
      <circle cx="232" cy="232" r="11"/>
      <circle cx="268" cy="268" r="11"/>
      <circle cx="304" cy="304" r="11"/>
      <circle cx="340" cy="340" r="11"/>
      <circle cx="376" cy="376" r="11"/>
      <circle cx="412" cy="412" r="11"/>
      <circle cx="448" cy="448" r="11"/>
      <circle cx="484" cy="484" r="11"/>
    </g>
    <g fill="#1e293b">
      <circle cx="16" cy="16" r="8"/>
      <circle cx="52" cy="52" r="8"/>
      <circle cx="88" cy="88" r="8"/>
      <circle cx="124" cy="124" r="8"/>
      <circle cx="160" cy="160" r="8"/>
      <circle cx="196" cy="196" r="8"/>
      <circle cx="232" cy="232" r="8"/>
      <circle cx="268" cy="268" r="8"/>
      <circle cx="304" cy="304" r="8"/>
      <circle cx="340" cy="340" r="8"/>
      <circle cx="376" cy="376" r="8"/>
      <circle cx="412" cy="412" r="8"/>
      <circle cx="448" cy="448" r="8"/>
      <circle cx="484" cy="484" r="8"/>
    </g>
  </g>
</svg>