<svg xmlns="http://www.w3.org/2000/svg" viewBox="0 0 512 512">
  <defs>
    <clipPath id="leftHalfMask">
      <polygon points="0,0 0,512 512,512"/>
    </clipPath>
    <clipPath id="rightHalfMask">
      <polygon points="0,0 512,0 512,512"/>
    </clipPath>

    <linearGradient id="lockBodyGradientMask" x1="0%" y1="0%" x2="0%" y2="100%">
      <stop offset="0%" stop-color="#3b82f6"/>
      <stop offset="100%" stop-color="#1d4ed8"/>
    </linearGradient>

    <linearGradient id="shackleGradientMask" x1="0%" y1="0%" x2="100%" y2="100%">
      <stop offset="0%" stop-color="#60a5fa"/>
      <stop offset="100%" stop-color="#1e40af"/>
    </linearGradient>

    <linearGradient id="filmGradientMask" x1="0%" y1="0%" x2="0%" y2="100%">
      <stop offset="0%" stop-color="#334155"/>
      <stop offset="100%" stop-color="#1e293b"/>
    </linearGradient>

    <radialGradient id="playGlowMask" cx="50%" cy="50%" r="50%">
      <stop offset="0%" stop-color="#ffffff"/>
      <stop offset="100%" stop-color="#e2e8f0"/>
    </radialGradient>

    <radialGradient id="keyholeGlowMask" cx="50%" cy="30%" r="60%">
      <stop offset="0%" stop-color="#fbbf24"/>
      <stop offset="100%" stop-color="#d97706"/>
    </radialGradient>

    <linearGradient id="filmStripGradientMask" x1="0%" y1="0%" x2="100%" y2="100%">
      <stop offset="0%" stop-color="#374151"/>
      <stop offset="100%" stop-color="#111827"/>
    </linearGradient>
  </defs>

  <!-- Background -->
  <rect width="512" height="512" fill="#0f172a"/>

  <g transform="translate(51.2, 51.2) scale(0.8)">
    <!-- ==================== LEFT/BOTTOM HALF: LOCK ==================== -->
    <g clip-path="url(#leftHalfMask)">
      <rect x="-100" y="-100" width="712" height="712" fill="#1e3a5f"/>

      <g transform="translate(-50, 60)">
        <path d="M176 220 L176 155 Q176 75 256 75 Q336 75 336 155 L336 220"
              fill="none" stroke="url(#shackleGradientMask)" stroke-width="42" stroke-linecap="round"/>
        <path d="M188 212 L188 160 Q188 92 256 92 Q324 92 324 160 L324 212"
              fill="none" stroke="#93c5fd" stroke-width="6" stroke-linecap="round" opacity="0.7"/>
        <path d="M200 220 L200 163 Q200 105 256 105 Q312 105 312 163 L312 220"
              fill="none" stroke="#0f172a" stroke-width="18" stroke-linecap="round"/>

        <rect x="136" y="222" width="240" height="198" rx="24" fill="url(#lockBodyGradientMask)"/>
        <rect x="140" y="222" width="232" height="12" rx="6" fill="#60a5fa" opacity="0.5"/>
        <rect x="158" y="250" width="196" height="146" rx="16" fill="#0f172a"/>

        <circle cx="256" cy="320" r="42" fill="url(#keyholeGlowMask)"/>
        <circle cx="256" cy="305" r="16" fill="#0f172a"/>
        <rect x="248" y="312" width="16" height="40" rx="4" fill="#0f172a"/>
      </g>
    </g>

    <!-- ==================== RIGHT/TOP HALF: FILM STRIP ==================== -->
    <g clip-path="url(#rightHalfMask)">
      <rect x="-100" y="-100" width="712" height="712" fill="#1e293b"/>

      <g transform="translate(40, -60)">
        <rect x="80" y="100" width="360" height="260" rx="8" fill="url(#filmGradientMask)"/>

        <g fill="#1e293b">
          <circle cx="115" cy="120" r="10"/><circle cx="165" cy="120" r="10"/>
          <circle cx="215" cy="120" r="10"/><circle cx="265" cy="120" r="10"/>
          <circle cx="315" cy="120" r="10"/><circle cx="365" cy="120" r="10"/>
          <circle cx="415" cy="120" r="10"/>
          <circle cx="115" cy="340" r="10"/><circle cx="165" cy="340" r="10"/>
          <circle cx="215" cy="340" r="10"/><circle cx="265" cy="340" r="10"/>
          <circle cx="315" cy="340" r="10"/><circle cx="365" cy="340" r="10"/>
          <circle cx="415" cy="340" r="10"/>
        </g>

        <rect x="80" y="138" width="360" height="184" fill="#0f172a"/>
        <rect x="173" y="138" width="4" height="184" fill="#1e293b"/>
        <rect x="278" y="138" width="4" height="184" fill="#1e293b"/>
        <rect x="383" y="138" width="4" height="184" fill="#1e293b"/>

        <!-- Red accent ring around play button -->
        <circle cx="280" cy="230" r="52" fill="none" stroke="#e94560" stroke-width="3" opacity="0.8"/>
        <circle cx="280" cy="230" r="48" fill="#e94560" opacity="0.1"/>
        <circle cx="280" cy="230" r="40" fill="#1e293b"/>
        <path d="M266 202 L266 258 L308 230 Z" fill="url(#playGlowMask)"/>
      </g>
    </g>

    <!-- ==================== DIAGONAL FILM PERFORATION STRIP ==================== -->
    <path d="M-20,0 L0,-20 L532,512 L512,532 Z" fill="url(#filmStripGradientMask)"/>
    <path d="M-20,0 L0,-20 L528,508 L524,512 L-4,4 Z" fill="#4b5563" opacity="0.5"/>

    <g fill="#0f172a">
      <circle cx="16" cy="16" r="8"/><circle cx="52" cy="52" r="8"/>
      <circle cx="88" cy="88" r="8"/><circle cx="124" cy="124" r="8"/>
      <circle cx="160" cy="160" r="8"/><circle cx="196" cy="196" r="8"/>
      <circle cx="232" cy="232" r="8"/><circle cx="268" cy="268" r="8"/>
      <circle cx="304" cy="304" r="8"/><circle cx="340" cy="340" r="8"/>
      <circle cx="376" cy="376" r="8"/><circle cx="412" cy="412" r="8"/>
      <circle cx="448" cy="448" r="8"/><circle cx="484" cy="484" r="8"/>
    </g>
  </g>
</svg>